<svg width="48" height="48" preserveAspectRatio="xMidYMid meet" viewBox="0 0 1024 1024" xmlns="http://www.w3.org/2000/svg"><path fill="#49634f" d="M712.96 64.064h-6.016a362.88 362.88 0 0 0-71.36 8.064 312.96 312.96 0 0 1 119.296 94.08c19.2 24.576 35.2 51.648 47.36 80.384 4.608 11.072 7.68 20.352 9.408 27.648a56 56 0 0 1 1.728 9.856 17.6 17.6 0 0 1-0.512 6.016l-0.256 0.576c1.28 36.608-7.808 61.44-8.96 96.448-0.768 25.344 5.76 55.168 7.296 87.68 1.472 30.592-2.24 64.128-22.08 97.088 1.728 1.984 3.2 3.968 4.864 6.016 52.48-82.688 90.24-174.08 110.4-252.16 10.816-41.856 16.64-79.936 17.088-110.08 0.384-30.08-5.184-51.968-12.352-61.12-56.128-71.808-132.16-90.048-195.84-90.56v0.064z"></path><path fill="#49634f" d="M512.576 74.752c-49.472 0.128-84.928 15.104-111.872 37.504-27.776 23.04-46.4 54.784-58.56 87.232a367.36 367.36 0 0 0-21.504 100.992l0.64-0.32c14.848-8.32 34.496-16.768 55.488-21.568 20.992-4.864 43.648-6.4 64.128 1.6 20.544 7.936 37.504 26.624 43.584 55.04 29.504 136.32-9.152 186.944-23.36 225.216a403.52 403.52 0 0 0-13.824 42.432c1.792-0.448 3.584-0.96 5.376-1.088 10.048-0.896 17.92 2.56 22.592 4.48a55.04 55.04 0 0 1 29.44 32.64 57.28 57.28 0 0 1 3.008 11.904c0.64 1.664 0.896 3.456 0.832 5.312-1.6 52.096-1.408 104.32 0.576 156.352 0.896 22.592 2.368 42.368 4.096 58.112 1.856 15.552 4.416 27.52 6.08 31.488 5.312 13.376 13.12 30.912 27.264 42.816 14.208 11.904 34.496 19.84 71.552 11.904 32.064-6.976 51.904-16.512 65.28-30.272 13.184-13.76 21.12-32.896 26.112-62.208 7.616-44.032 22.784-171.392 24.704-195.456-0.832-18.048 1.792-31.936 7.552-42.496a49.536 49.536 0 0 1 23.104-21.12c3.968-1.856 7.744-3.008 10.752-3.904a232.448 232.448 0 0 0-10.176-13.632 186.88 186.88 0 0 1-27.84-46.016 309.632 309.632 0 0 0-10.752-20.16c-5.504-10.048-12.608-22.656-19.968-36.672-14.72-28.288-30.72-62.464-39.04-95.872-8.32-33.28-9.536-67.84 11.712-92.096 18.88-21.568 51.84-30.528 101.504-25.536-1.408-4.416-2.304-8.064-4.736-13.888a325.248 325.248 0 0 0-43.648-73.792c-42.048-53.76-110.08-107.072-215.296-108.8H512.64v-0.128z"></path><path fill="#49634f" d="M234.624 76.928c-5.312 0-10.624 0.192-15.872 0.448-42.304 2.432-82.24 14.72-110.848 44.992-28.672 30.336-47.488 80-43.328 162.24 0.768 15.552 7.552 59.2 19.2 110.976 11.52 51.776 27.968 112.768 47.744 166.656 19.84 53.824 43.776 100.672 66.56 122.88 11.52 11.136 21.44 15.552 30.464 15.168 9.088-0.384 20.032-5.632 33.408-21.696 24.32-29.312 49.536-57.856 75.648-85.696a146.368 146.368 0 0 1-48.832-131.84c4.352-30.912 4.928-59.776 4.416-82.624-0.512-22.272-2.048-37.12-2.048-46.336v-1.024l-0.064-0.256c0-48.192 8.32-96 24.768-141.312 11.648-31.168 29.12-62.784 55.296-88.384-25.664-8.512-71.296-21.376-120.704-23.744a268.224 268.224 0 0 0-15.872-0.448z m518.784 221.056c-28.416 0.384-44.352 7.68-52.736 17.28-11.84 13.632-12.928 37.44-5.568 66.816 7.36 29.44 22.464 62.336 36.672 89.6 7.168 13.76 14.08 26.048 19.584 36.032 5.632 10.048 9.728 17.216 12.224 23.232 2.304 5.632 4.864 10.56 7.488 15.168 11.008-23.232 12.928-46.08 11.776-69.76-1.408-29.44-8.32-59.52-7.232-90.048 1.152-35.584 8.128-58.752 8.832-86.336a244.16 244.16 0 0 0-31.04-1.984"></path><path fill="#49634f" d="M408.832 302.784c-8.64 0.064-17.28 1.152-25.792 3.072a193.792 193.792 0 0 0-48.192 18.88c-5.12 2.752-10.048 5.888-14.592 9.472l-0.96 0.832c0.256 6.144 1.472 20.928 1.92 42.752 0.576 23.872 0 54.272-4.608 87.232-9.984 71.552 41.92 130.816 102.912 130.88 3.584-14.656 9.408-29.568 15.232-45.312 17.024-45.76 50.496-79.104 22.336-209.408-4.608-21.376-13.76-30.08-26.304-34.88a61.888 61.888 0 0 0-21.952-3.52m383.232 322.88h-0.128c-6.144 2.24-11.264 3.136-15.552 5.12a19.008 19.008 0 0 0-9.92 8.896c-2.688 4.8-4.928 13.376-4.224 27.84 1.92 1.28 3.968 2.304 6.208 2.944 7.04 2.24 19.136 3.584 32.512 3.392 26.688-0.32 59.52-6.528 76.992-14.592 14.336-6.656 27.648-15.36 39.488-25.728-58.368 11.968-91.328 8.768-111.488 0.384a55.168 55.168 0 0 1-13.888-8.32v0.064z m-336.128 3.904h-0.832c-2.24 0.192-5.504 0.96-11.712 7.872-14.528 16.32-19.648 26.624-31.68 36.16-11.968 9.6-27.648 14.72-58.752 21.12-6.656 1.152-13.184 3.2-19.328 6.016 1.28 0.896 1.152 1.28 2.944 2.176 4.608 2.56 10.432 4.672 15.104 5.952 13.44 3.328 35.456 7.232 58.432 3.328 22.912-3.968 46.848-14.912 67.2-43.52 3.584-4.928 3.968-12.16 1.088-20.096a30.912 30.912 0 0 0-13.888-16.384 27.392 27.392 0 0 0-8.576-2.56z"></path></svg>